<mxfile host="app.diagrams.net" agent="Mozilla/5.0 (Windows NT 10.0; Win64; x64) AppleWebKit/537.36 (KHTML, like Gecko) Chrome/133.0.0.0 Safari/537.36" version="26.0.14">
  <diagram id="C5RBs43oDa-KdzZeNtuy" name="Page-1">
    <mxGraphModel dx="761" dy="636" grid="1" gridSize="10" guides="1" tooltips="1" connect="1" arrows="1" fold="1" page="1" pageScale="1" pageWidth="827" pageHeight="1169" math="0" shadow="0">
      <root>
        <mxCell id="WIyWlLk6GJQsqaUBKTNV-0" />
        <mxCell id="WIyWlLk6GJQsqaUBKTNV-1" parent="WIyWlLk6GJQsqaUBKTNV-0" />
        <mxCell id="-L3bcG7KPsZaxDMUh6fV-14" style="edgeStyle=orthogonalEdgeStyle;rounded=0;orthogonalLoop=1;jettySize=auto;html=1;entryX=0.513;entryY=0.946;entryDx=0;entryDy=0;entryPerimeter=0;" edge="1" parent="WIyWlLk6GJQsqaUBKTNV-1" source="zkfFHV4jXpPFQw0GAbJ--0" target="Vv7to5zXJxRcXvwJAXze-8">
          <mxGeometry relative="1" as="geometry">
            <mxPoint x="710" y="770" as="targetPoint" />
            <Array as="points">
              <mxPoint x="470" y="1030" />
              <mxPoint x="710" y="1030" />
              <mxPoint x="710" y="770" />
              <mxPoint x="707" y="770" />
            </Array>
          </mxGeometry>
        </mxCell>
        <mxCell id="-L3bcG7KPsZaxDMUh6fV-15" style="edgeStyle=orthogonalEdgeStyle;rounded=0;orthogonalLoop=1;jettySize=auto;html=1;entryX=0.5;entryY=1;entryDx=0;entryDy=0;" edge="1" parent="WIyWlLk6GJQsqaUBKTNV-1" source="zkfFHV4jXpPFQw0GAbJ--0" target="-L3bcG7KPsZaxDMUh6fV-0">
          <mxGeometry relative="1" as="geometry" />
        </mxCell>
        <mxCell id="zkfFHV4jXpPFQw0GAbJ--0" value="MainWindow" style="swimlane;fontStyle=2;align=center;verticalAlign=top;childLayout=stackLayout;horizontal=1;startSize=26;horizontalStack=0;resizeParent=1;resizeLast=0;collapsible=1;marginBottom=0;rounded=0;shadow=0;strokeWidth=1;" parent="WIyWlLk6GJQsqaUBKTNV-1" vertex="1">
          <mxGeometry x="360" y="378" width="220" height="632" as="geometry">
            <mxRectangle x="230" y="140" width="160" height="26" as="alternateBounds" />
          </mxGeometry>
        </mxCell>
        <mxCell id="zkfFHV4jXpPFQw0GAbJ--1" value="-hero: Character" style="text;align=left;verticalAlign=top;spacingLeft=4;spacingRight=4;overflow=hidden;rotatable=0;points=[[0,0.5],[1,0.5]];portConstraint=eastwest;" parent="zkfFHV4jXpPFQw0GAbJ--0" vertex="1">
          <mxGeometry y="26" width="220" height="26" as="geometry" />
        </mxCell>
        <mxCell id="zkfFHV4jXpPFQw0GAbJ--2" value="-enemy: Character" style="text;align=left;verticalAlign=top;spacingLeft=4;spacingRight=4;overflow=hidden;rotatable=0;points=[[0,0.5],[1,0.5]];portConstraint=eastwest;rounded=0;shadow=0;html=0;" parent="zkfFHV4jXpPFQw0GAbJ--0" vertex="1">
          <mxGeometry y="52" width="220" height="26" as="geometry" />
        </mxCell>
        <mxCell id="zkfFHV4jXpPFQw0GAbJ--3" value="-random: Random" style="text;align=left;verticalAlign=top;spacingLeft=4;spacingRight=4;overflow=hidden;rotatable=0;points=[[0,0.5],[1,0.5]];portConstraint=eastwest;rounded=0;shadow=0;html=0;" parent="zkfFHV4jXpPFQw0GAbJ--0" vertex="1">
          <mxGeometry y="78" width="220" height="26" as="geometry" />
        </mxCell>
        <mxCell id="Vv7to5zXJxRcXvwJAXze-43" value="-battleTimer: DispatcherTimer" style="text;align=left;verticalAlign=top;spacingLeft=4;spacingRight=4;overflow=hidden;rotatable=0;points=[[0,0.5],[1,0.5]];portConstraint=eastwest;rounded=0;shadow=0;html=0;" parent="zkfFHV4jXpPFQw0GAbJ--0" vertex="1">
          <mxGeometry y="104" width="220" height="26" as="geometry" />
        </mxCell>
        <mxCell id="Vv7to5zXJxRcXvwJAXze-44" value="-isBattleActive: bool" style="text;align=left;verticalAlign=top;spacingLeft=4;spacingRight=4;overflow=hidden;rotatable=0;points=[[0,0.5],[1,0.5]];portConstraint=eastwest;rounded=0;shadow=0;html=0;" parent="zkfFHV4jXpPFQw0GAbJ--0" vertex="1">
          <mxGeometry y="130" width="220" height="26" as="geometry" />
        </mxCell>
        <mxCell id="Vv7to5zXJxRcXvwJAXze-45" value="-battleLog: StringBuilder" style="text;align=left;verticalAlign=top;spacingLeft=4;spacingRight=4;overflow=hidden;rotatable=0;points=[[0,0.5],[1,0.5]];portConstraint=eastwest;rounded=0;shadow=0;html=0;" parent="zkfFHV4jXpPFQw0GAbJ--0" vertex="1">
          <mxGeometry y="156" width="220" height="26" as="geometry" />
        </mxCell>
        <mxCell id="Vv7to5zXJxRcXvwJAXze-46" value="-isDefending: bool" style="text;align=left;verticalAlign=top;spacingLeft=4;spacingRight=4;overflow=hidden;rotatable=0;points=[[0,0.5],[1,0.5]];portConstraint=eastwest;rounded=0;shadow=0;html=0;" parent="zkfFHV4jXpPFQw0GAbJ--0" vertex="1">
          <mxGeometry y="182" width="220" height="26" as="geometry" />
        </mxCell>
        <mxCell id="zkfFHV4jXpPFQw0GAbJ--4" value="" style="line;html=1;strokeWidth=1;align=left;verticalAlign=middle;spacingTop=-1;spacingLeft=3;spacingRight=3;rotatable=0;labelPosition=right;points=[];portConstraint=eastwest;" parent="zkfFHV4jXpPFQw0GAbJ--0" vertex="1">
          <mxGeometry y="208" width="220" height="8" as="geometry" />
        </mxCell>
        <mxCell id="zkfFHV4jXpPFQw0GAbJ--5" value="+MainWindow()" style="text;align=left;verticalAlign=top;spacingLeft=4;spacingRight=4;overflow=hidden;rotatable=0;points=[[0,0.5],[1,0.5]];portConstraint=eastwest;" parent="zkfFHV4jXpPFQw0GAbJ--0" vertex="1">
          <mxGeometry y="216" width="220" height="26" as="geometry" />
        </mxCell>
        <mxCell id="Vv7to5zXJxRcXvwJAXze-47" value="-InitializeComboBoxes() : void" style="text;align=left;verticalAlign=top;spacingLeft=4;spacingRight=4;overflow=hidden;rotatable=0;points=[[0,0.5],[1,0.5]];portConstraint=eastwest;" parent="zkfFHV4jXpPFQw0GAbJ--0" vertex="1">
          <mxGeometry y="242" width="220" height="26" as="geometry" />
        </mxCell>
        <mxCell id="Vv7to5zXJxRcXvwJAXze-48" value="-SetupBattleTimer() : void" style="text;align=left;verticalAlign=top;spacingLeft=4;spacingRight=4;overflow=hidden;rotatable=0;points=[[0,0.5],[1,0.5]];portConstraint=eastwest;" parent="zkfFHV4jXpPFQw0GAbJ--0" vertex="1">
          <mxGeometry y="268" width="220" height="26" as="geometry" />
        </mxCell>
        <mxCell id="Vv7to5zXJxRcXvwJAXze-49" value="-BattleTimer_Tick() : void" style="text;align=left;verticalAlign=top;spacingLeft=4;spacingRight=4;overflow=hidden;rotatable=0;points=[[0,0.5],[1,0.5]];portConstraint=eastwest;" parent="zkfFHV4jXpPFQw0GAbJ--0" vertex="1">
          <mxGeometry y="294" width="220" height="26" as="geometry" />
        </mxCell>
        <mxCell id="Vv7to5zXJxRcXvwJAXze-50" value="-InitializeDefaultImages() : void" style="text;align=left;verticalAlign=top;spacingLeft=4;spacingRight=4;overflow=hidden;rotatable=0;points=[[0,0.5],[1,0.5]];portConstraint=eastwest;" parent="zkfFHV4jXpPFQw0GAbJ--0" vertex="1">
          <mxGeometry y="320" width="220" height="26" as="geometry" />
        </mxCell>
        <mxCell id="zfv1qk1JIPpRBInnybFF-0" value="-CreateDefaultCharacterVisual() : void" style="text;align=left;verticalAlign=top;spacingLeft=4;spacingRight=4;overflow=hidden;rotatable=0;points=[[0,0.5],[1,0.5]];portConstraint=eastwest;" parent="zkfFHV4jXpPFQw0GAbJ--0" vertex="1">
          <mxGeometry y="346" width="220" height="26" as="geometry" />
        </mxCell>
        <mxCell id="zfv1qk1JIPpRBInnybFF-1" value="-CreateHero_Click() : void" style="text;align=left;verticalAlign=top;spacingLeft=4;spacingRight=4;overflow=hidden;rotatable=0;points=[[0,0.5],[1,0.5]];portConstraint=eastwest;" parent="zkfFHV4jXpPFQw0GAbJ--0" vertex="1">
          <mxGeometry y="372" width="220" height="26" as="geometry" />
        </mxCell>
        <mxCell id="zfv1qk1JIPpRBInnybFF-2" value="-CreateEnemy_Click() : void" style="text;align=left;verticalAlign=top;spacingLeft=4;spacingRight=4;overflow=hidden;rotatable=0;points=[[0,0.5],[1,0.5]];portConstraint=eastwest;" parent="zkfFHV4jXpPFQw0GAbJ--0" vertex="1">
          <mxGeometry y="398" width="220" height="26" as="geometry" />
        </mxCell>
        <mxCell id="zfv1qk1JIPpRBInnybFF-3" value="-UpdateCharacterVisual() : void" style="text;align=left;verticalAlign=top;spacingLeft=4;spacingRight=4;overflow=hidden;rotatable=0;points=[[0,0.5],[1,0.5]];portConstraint=eastwest;" parent="zkfFHV4jXpPFQw0GAbJ--0" vertex="1">
          <mxGeometry y="424" width="220" height="26" as="geometry" />
        </mxCell>
        <mxCell id="zfv1qk1JIPpRBInnybFF-4" value="-ProcessAttack() : void" style="text;align=left;verticalAlign=top;spacingLeft=4;spacingRight=4;overflow=hidden;rotatable=0;points=[[0,0.5],[1,0.5]];portConstraint=eastwest;" parent="zkfFHV4jXpPFQw0GAbJ--0" vertex="1">
          <mxGeometry y="450" width="220" height="26" as="geometry" />
        </mxCell>
        <mxCell id="zfv1qk1JIPpRBInnybFF-5" value="-ProcessEnemyTurn() : void" style="text;align=left;verticalAlign=top;spacingLeft=4;spacingRight=4;overflow=hidden;rotatable=0;points=[[0,0.5],[1,0.5]];portConstraint=eastwest;" parent="zkfFHV4jXpPFQw0GAbJ--0" vertex="1">
          <mxGeometry y="476" width="220" height="26" as="geometry" />
        </mxCell>
        <mxCell id="zfv1qk1JIPpRBInnybFF-6" value="-CalcukateDamage() : int" style="text;align=left;verticalAlign=top;spacingLeft=4;spacingRight=4;overflow=hidden;rotatable=0;points=[[0,0.5],[1,0.5]];portConstraint=eastwest;" parent="zkfFHV4jXpPFQw0GAbJ--0" vertex="1">
          <mxGeometry y="502" width="220" height="26" as="geometry" />
        </mxCell>
        <mxCell id="zfv1qk1JIPpRBInnybFF-7" value="-IsCriticalHit() : bool" style="text;align=left;verticalAlign=top;spacingLeft=4;spacingRight=4;overflow=hidden;rotatable=0;points=[[0,0.5],[1,0.5]];portConstraint=eastwest;" parent="zkfFHV4jXpPFQw0GAbJ--0" vertex="1">
          <mxGeometry y="528" width="220" height="26" as="geometry" />
        </mxCell>
        <mxCell id="zfv1qk1JIPpRBInnybFF-8" value="-IsDodged() : bool" style="text;align=left;verticalAlign=top;spacingLeft=4;spacingRight=4;overflow=hidden;rotatable=0;points=[[0,0.5],[1,0.5]];portConstraint=eastwest;" parent="zkfFHV4jXpPFQw0GAbJ--0" vertex="1">
          <mxGeometry y="554" width="220" height="26" as="geometry" />
        </mxCell>
        <mxCell id="zfv1qk1JIPpRBInnybFF-9" value="-EndBattle() : void" style="text;align=left;verticalAlign=top;spacingLeft=4;spacingRight=4;overflow=hidden;rotatable=0;points=[[0,0.5],[1,0.5]];portConstraint=eastwest;" parent="zkfFHV4jXpPFQw0GAbJ--0" vertex="1">
          <mxGeometry y="580" width="220" height="26" as="geometry" />
        </mxCell>
        <mxCell id="zfv1qk1JIPpRBInnybFF-10" value="-AddBattleLog() : void" style="text;align=left;verticalAlign=top;spacingLeft=4;spacingRight=4;overflow=hidden;rotatable=0;points=[[0,0.5],[1,0.5]];portConstraint=eastwest;" parent="zkfFHV4jXpPFQw0GAbJ--0" vertex="1">
          <mxGeometry y="606" width="220" height="26" as="geometry" />
        </mxCell>
        <mxCell id="zkfFHV4jXpPFQw0GAbJ--6" value="HeroBuilder" style="swimlane;fontStyle=0;align=center;verticalAlign=top;childLayout=stackLayout;horizontal=1;startSize=26;horizontalStack=0;resizeParent=1;resizeLast=0;collapsible=1;marginBottom=0;rounded=0;shadow=0;strokeWidth=1;" parent="WIyWlLk6GJQsqaUBKTNV-1" vertex="1">
          <mxGeometry y="1010" width="250" height="112" as="geometry">
            <mxRectangle x="130" y="380" width="160" height="26" as="alternateBounds" />
          </mxGeometry>
        </mxCell>
        <mxCell id="zkfFHV4jXpPFQw0GAbJ--9" value="" style="line;html=1;strokeWidth=1;align=left;verticalAlign=middle;spacingTop=-1;spacingLeft=3;spacingRight=3;rotatable=0;labelPosition=right;points=[];portConstraint=eastwest;" parent="zkfFHV4jXpPFQw0GAbJ--6" vertex="1">
          <mxGeometry y="26" width="250" height="8" as="geometry" />
        </mxCell>
        <mxCell id="zkfFHV4jXpPFQw0GAbJ--7" value="+HeroBuilder()" style="text;align=left;verticalAlign=top;spacingLeft=4;spacingRight=4;overflow=hidden;rotatable=0;points=[[0,0.5],[1,0.5]];portConstraint=eastwest;" parent="zkfFHV4jXpPFQw0GAbJ--6" vertex="1">
          <mxGeometry y="34" width="250" height="26" as="geometry" />
        </mxCell>
        <mxCell id="zkfFHV4jXpPFQw0GAbJ--8" value="+AddDeed(deed: string) : ICharacterBuilder" style="text;align=left;verticalAlign=top;spacingLeft=4;spacingRight=4;overflow=hidden;rotatable=0;points=[[0,0.5],[1,0.5]];portConstraint=eastwest;rounded=0;shadow=0;html=0;" parent="zkfFHV4jXpPFQw0GAbJ--6" vertex="1">
          <mxGeometry y="60" width="250" height="26" as="geometry" />
        </mxCell>
        <mxCell id="zkfFHV4jXpPFQw0GAbJ--11" value="#CalculateAttack() : int" style="text;align=left;verticalAlign=top;spacingLeft=4;spacingRight=4;overflow=hidden;rotatable=0;points=[[0,0.5],[1,0.5]];portConstraint=eastwest;" parent="zkfFHV4jXpPFQw0GAbJ--6" vertex="1">
          <mxGeometry y="86" width="250" height="26" as="geometry" />
        </mxCell>
        <mxCell id="zkfFHV4jXpPFQw0GAbJ--17" value="&quot;interface&quot;&#xa;ICharacterBuilder" style="swimlane;fontStyle=0;align=center;verticalAlign=top;childLayout=stackLayout;horizontal=1;startSize=40;horizontalStack=0;resizeParent=1;resizeLast=0;collapsible=1;marginBottom=0;rounded=0;shadow=0;strokeWidth=1;" parent="WIyWlLk6GJQsqaUBKTNV-1" vertex="1">
          <mxGeometry x="10" y="10" width="290" height="374" as="geometry">
            <mxRectangle x="550" y="140" width="160" height="26" as="alternateBounds" />
          </mxGeometry>
        </mxCell>
        <mxCell id="zkfFHV4jXpPFQw0GAbJ--23" value="" style="line;html=1;strokeWidth=1;align=left;verticalAlign=middle;spacingTop=-1;spacingLeft=3;spacingRight=3;rotatable=0;labelPosition=right;points=[];portConstraint=eastwest;" parent="zkfFHV4jXpPFQw0GAbJ--17" vertex="1">
          <mxGeometry y="40" width="290" height="8" as="geometry" />
        </mxCell>
        <mxCell id="zkfFHV4jXpPFQw0GAbJ--18" value="+SetHeight(height: int) : ICharacterBuilder" style="text;align=left;verticalAlign=top;spacingLeft=4;spacingRight=4;overflow=hidden;rotatable=0;points=[[0,0.5],[1,0.5]];portConstraint=eastwest;" parent="zkfFHV4jXpPFQw0GAbJ--17" vertex="1">
          <mxGeometry y="48" width="290" height="26" as="geometry" />
        </mxCell>
        <mxCell id="zkfFHV4jXpPFQw0GAbJ--19" value="+SetPhysique: string) : ICharacterBuilder" style="text;align=left;verticalAlign=top;spacingLeft=4;spacingRight=4;overflow=hidden;rotatable=0;points=[[0,0.5],[1,0.5]];portConstraint=eastwest;rounded=0;shadow=0;html=0;" parent="zkfFHV4jXpPFQw0GAbJ--17" vertex="1">
          <mxGeometry y="74" width="290" height="26" as="geometry" />
        </mxCell>
        <mxCell id="zkfFHV4jXpPFQw0GAbJ--20" value="+SetHairColor(hairColor: string) :ICharacterBuilder" style="text;align=left;verticalAlign=top;spacingLeft=4;spacingRight=4;overflow=hidden;rotatable=0;points=[[0,0.5],[1,0.5]];portConstraint=eastwest;rounded=0;shadow=0;html=0;" parent="zkfFHV4jXpPFQw0GAbJ--17" vertex="1">
          <mxGeometry y="100" width="290" height="26" as="geometry" />
        </mxCell>
        <mxCell id="zkfFHV4jXpPFQw0GAbJ--21" value="+SetEyeColor(eyeColor: string) : ICharacterBuilder" style="text;align=left;verticalAlign=top;spacingLeft=4;spacingRight=4;overflow=hidden;rotatable=0;points=[[0,0.5],[1,0.5]];portConstraint=eastwest;rounded=0;shadow=0;html=0;" parent="zkfFHV4jXpPFQw0GAbJ--17" vertex="1">
          <mxGeometry y="126" width="290" height="26" as="geometry" />
        </mxCell>
        <mxCell id="zkfFHV4jXpPFQw0GAbJ--22" value="+SetClothing(clothing: string) : ICharacterBuilder" style="text;align=left;verticalAlign=top;spacingLeft=4;spacingRight=4;overflow=hidden;rotatable=0;points=[[0,0.5],[1,0.5]];portConstraint=eastwest;rounded=0;shadow=0;html=0;" parent="zkfFHV4jXpPFQw0GAbJ--17" vertex="1">
          <mxGeometry y="152" width="290" height="26" as="geometry" />
        </mxCell>
        <mxCell id="zkfFHV4jXpPFQw0GAbJ--25" value="+AddInventoryItem(item: string) : ICharacterBuilder" style="text;align=left;verticalAlign=top;spacingLeft=4;spacingRight=4;overflow=hidden;rotatable=0;points=[[0,0.5],[1,0.5]];portConstraint=eastwest;" parent="zkfFHV4jXpPFQw0GAbJ--17" vertex="1">
          <mxGeometry y="178" width="290" height="26" as="geometry" />
        </mxCell>
        <mxCell id="zkfFHV4jXpPFQw0GAbJ--24" value="+AddDeed(deed: string) : ICharacterBuilder" style="text;align=left;verticalAlign=top;spacingLeft=4;spacingRight=4;overflow=hidden;rotatable=0;points=[[0,0.5],[1,0.5]];portConstraint=eastwest;" parent="zkfFHV4jXpPFQw0GAbJ--17" vertex="1">
          <mxGeometry y="204" width="290" height="26" as="geometry" />
        </mxCell>
        <mxCell id="Vv7to5zXJxRcXvwJAXze-29" value="+SetBaseStats(strength: int, agility: int, &#xa;intelligence: int, stamina: int) : ICharacterBuilder" style="text;align=left;verticalAlign=top;spacingLeft=4;spacingRight=4;overflow=hidden;rotatable=0;points=[[0,0.5],[1,0.5]];portConstraint=eastwest;" parent="zkfFHV4jXpPFQw0GAbJ--17" vertex="1">
          <mxGeometry y="230" width="290" height="40" as="geometry" />
        </mxCell>
        <mxCell id="Vv7to5zXJxRcXvwJAXze-30" value="+SetLevel(level: int) : ICharacterBuilder" style="text;align=left;verticalAlign=top;spacingLeft=4;spacingRight=4;overflow=hidden;rotatable=0;points=[[0,0.5],[1,0.5]];portConstraint=eastwest;" parent="zkfFHV4jXpPFQw0GAbJ--17" vertex="1">
          <mxGeometry y="270" width="290" height="26" as="geometry" />
        </mxCell>
        <mxCell id="Vv7to5zXJxRcXvwJAXze-31" value="+AddAbiliry(ability: string) : ICharacterBuilder" style="text;align=left;verticalAlign=top;spacingLeft=4;spacingRight=4;overflow=hidden;rotatable=0;points=[[0,0.5],[1,0.5]];portConstraint=eastwest;" parent="zkfFHV4jXpPFQw0GAbJ--17" vertex="1">
          <mxGeometry y="296" width="290" height="26" as="geometry" />
        </mxCell>
        <mxCell id="Vv7to5zXJxRcXvwJAXze-32" value="+AddPassiveSkill(skill: string) : ICharacterBuilder" style="text;align=left;verticalAlign=top;spacingLeft=4;spacingRight=4;overflow=hidden;rotatable=0;points=[[0,0.5],[1,0.5]];portConstraint=eastwest;" parent="zkfFHV4jXpPFQw0GAbJ--17" vertex="1">
          <mxGeometry y="322" width="290" height="26" as="geometry" />
        </mxCell>
        <mxCell id="Vv7to5zXJxRcXvwJAXze-33" value="+Build(): Character" style="text;align=left;verticalAlign=top;spacingLeft=4;spacingRight=4;overflow=hidden;rotatable=0;points=[[0,0.5],[1,0.5]];portConstraint=eastwest;" parent="zkfFHV4jXpPFQw0GAbJ--17" vertex="1">
          <mxGeometry y="348" width="290" height="26" as="geometry" />
        </mxCell>
        <mxCell id="Vv7to5zXJxRcXvwJAXze-0" value="Character" style="swimlane;fontStyle=0;align=center;verticalAlign=top;childLayout=stackLayout;horizontal=1;startSize=26;horizontalStack=0;resizeParent=1;resizeLast=0;collapsible=1;marginBottom=0;rounded=0;shadow=0;strokeWidth=1;" parent="WIyWlLk6GJQsqaUBKTNV-1" vertex="1">
          <mxGeometry x="650" y="20" width="170" height="736" as="geometry">
            <mxRectangle x="550" y="140" width="160" height="26" as="alternateBounds" />
          </mxGeometry>
        </mxCell>
        <mxCell id="Vv7to5zXJxRcXvwJAXze-1" value="+Height: int" style="text;align=left;verticalAlign=top;spacingLeft=4;spacingRight=4;overflow=hidden;rotatable=0;points=[[0,0.5],[1,0.5]];portConstraint=eastwest;" parent="Vv7to5zXJxRcXvwJAXze-0" vertex="1">
          <mxGeometry y="26" width="170" height="26" as="geometry" />
        </mxCell>
        <mxCell id="Vv7to5zXJxRcXvwJAXze-2" value="+Physique: string" style="text;align=left;verticalAlign=top;spacingLeft=4;spacingRight=4;overflow=hidden;rotatable=0;points=[[0,0.5],[1,0.5]];portConstraint=eastwest;rounded=0;shadow=0;html=0;" parent="Vv7to5zXJxRcXvwJAXze-0" vertex="1">
          <mxGeometry y="52" width="170" height="26" as="geometry" />
        </mxCell>
        <mxCell id="Vv7to5zXJxRcXvwJAXze-3" value="+HairColor: string" style="text;align=left;verticalAlign=top;spacingLeft=4;spacingRight=4;overflow=hidden;rotatable=0;points=[[0,0.5],[1,0.5]];portConstraint=eastwest;rounded=0;shadow=0;html=0;" parent="Vv7to5zXJxRcXvwJAXze-0" vertex="1">
          <mxGeometry y="78" width="170" height="26" as="geometry" />
        </mxCell>
        <mxCell id="Vv7to5zXJxRcXvwJAXze-4" value="+EyeColor: string" style="text;align=left;verticalAlign=top;spacingLeft=4;spacingRight=4;overflow=hidden;rotatable=0;points=[[0,0.5],[1,0.5]];portConstraint=eastwest;rounded=0;shadow=0;html=0;" parent="Vv7to5zXJxRcXvwJAXze-0" vertex="1">
          <mxGeometry y="104" width="170" height="26" as="geometry" />
        </mxCell>
        <mxCell id="Vv7to5zXJxRcXvwJAXze-5" value="+IsHero: bool" style="text;align=left;verticalAlign=top;spacingLeft=4;spacingRight=4;overflow=hidden;rotatable=0;points=[[0,0.5],[1,0.5]];portConstraint=eastwest;rounded=0;shadow=0;html=0;" parent="Vv7to5zXJxRcXvwJAXze-0" vertex="1">
          <mxGeometry y="130" width="170" height="26" as="geometry" />
        </mxCell>
        <mxCell id="zfv1qk1JIPpRBInnybFF-12" value="+Health: int" style="text;align=left;verticalAlign=top;spacingLeft=4;spacingRight=4;overflow=hidden;rotatable=0;points=[[0,0.5],[1,0.5]];portConstraint=eastwest;rounded=0;shadow=0;html=0;" parent="Vv7to5zXJxRcXvwJAXze-0" vertex="1">
          <mxGeometry y="156" width="170" height="26" as="geometry" />
        </mxCell>
        <mxCell id="zfv1qk1JIPpRBInnybFF-13" value="+MaxHealth: int" style="text;align=left;verticalAlign=top;spacingLeft=4;spacingRight=4;overflow=hidden;rotatable=0;points=[[0,0.5],[1,0.5]];portConstraint=eastwest;rounded=0;shadow=0;html=0;" parent="Vv7to5zXJxRcXvwJAXze-0" vertex="1">
          <mxGeometry y="182" width="170" height="26" as="geometry" />
        </mxCell>
        <mxCell id="zfv1qk1JIPpRBInnybFF-14" value="+Attack: int" style="text;align=left;verticalAlign=top;spacingLeft=4;spacingRight=4;overflow=hidden;rotatable=0;points=[[0,0.5],[1,0.5]];portConstraint=eastwest;rounded=0;shadow=0;html=0;" parent="Vv7to5zXJxRcXvwJAXze-0" vertex="1">
          <mxGeometry y="208" width="170" height="26" as="geometry" />
        </mxCell>
        <mxCell id="zfv1qk1JIPpRBInnybFF-15" value="+Defense: int" style="text;align=left;verticalAlign=top;spacingLeft=4;spacingRight=4;overflow=hidden;rotatable=0;points=[[0,0.5],[1,0.5]];portConstraint=eastwest;" parent="Vv7to5zXJxRcXvwJAXze-0" vertex="1">
          <mxGeometry y="234" width="170" height="26" as="geometry" />
        </mxCell>
        <mxCell id="zfv1qk1JIPpRBInnybFF-22" value="+CharacterClass: string" style="text;align=left;verticalAlign=top;spacingLeft=4;spacingRight=4;overflow=hidden;rotatable=0;points=[[0,0.5],[1,0.5]];portConstraint=eastwest;rounded=0;shadow=0;html=0;" parent="Vv7to5zXJxRcXvwJAXze-0" vertex="1">
          <mxGeometry y="260" width="170" height="26" as="geometry" />
        </mxCell>
        <mxCell id="zfv1qk1JIPpRBInnybFF-21" value="+WeaponType: string" style="text;align=left;verticalAlign=top;spacingLeft=4;spacingRight=4;overflow=hidden;rotatable=0;points=[[0,0.5],[1,0.5]];portConstraint=eastwest;rounded=0;shadow=0;html=0;" parent="Vv7to5zXJxRcXvwJAXze-0" vertex="1">
          <mxGeometry y="286" width="170" height="26" as="geometry" />
        </mxCell>
        <mxCell id="zfv1qk1JIPpRBInnybFF-20" value="+Level: int" style="text;align=left;verticalAlign=top;spacingLeft=4;spacingRight=4;overflow=hidden;rotatable=0;points=[[0,0.5],[1,0.5]];portConstraint=eastwest;rounded=0;shadow=0;html=0;" parent="Vv7to5zXJxRcXvwJAXze-0" vertex="1">
          <mxGeometry y="312" width="170" height="26" as="geometry" />
        </mxCell>
        <mxCell id="zfv1qk1JIPpRBInnybFF-19" value="+Experience: int" style="text;align=left;verticalAlign=top;spacingLeft=4;spacingRight=4;overflow=hidden;rotatable=0;points=[[0,0.5],[1,0.5]];portConstraint=eastwest;rounded=0;shadow=0;html=0;" parent="Vv7to5zXJxRcXvwJAXze-0" vertex="1">
          <mxGeometry y="338" width="170" height="26" as="geometry" />
        </mxCell>
        <mxCell id="zfv1qk1JIPpRBInnybFF-18" value="+ExperienceToNextLevel: int" style="text;align=left;verticalAlign=top;spacingLeft=4;spacingRight=4;overflow=hidden;rotatable=0;points=[[0,0.5],[1,0.5]];portConstraint=eastwest;rounded=0;shadow=0;html=0;" parent="Vv7to5zXJxRcXvwJAXze-0" vertex="1">
          <mxGeometry y="364" width="170" height="26" as="geometry" />
        </mxCell>
        <mxCell id="zfv1qk1JIPpRBInnybFF-17" value="+Strength: int" style="text;align=left;verticalAlign=top;spacingLeft=4;spacingRight=4;overflow=hidden;rotatable=0;points=[[0,0.5],[1,0.5]];portConstraint=eastwest;rounded=0;shadow=0;html=0;" parent="Vv7to5zXJxRcXvwJAXze-0" vertex="1">
          <mxGeometry y="390" width="170" height="26" as="geometry" />
        </mxCell>
        <mxCell id="zfv1qk1JIPpRBInnybFF-16" value="+Agility: int" style="text;align=left;verticalAlign=top;spacingLeft=4;spacingRight=4;overflow=hidden;rotatable=0;points=[[0,0.5],[1,0.5]];portConstraint=eastwest;rounded=0;shadow=0;html=0;" parent="Vv7to5zXJxRcXvwJAXze-0" vertex="1">
          <mxGeometry y="416" width="170" height="26" as="geometry" />
        </mxCell>
        <mxCell id="zfv1qk1JIPpRBInnybFF-30" value="+Intelligence: int" style="text;align=left;verticalAlign=top;spacingLeft=4;spacingRight=4;overflow=hidden;rotatable=0;points=[[0,0.5],[1,0.5]];portConstraint=eastwest;rounded=0;shadow=0;html=0;" parent="Vv7to5zXJxRcXvwJAXze-0" vertex="1">
          <mxGeometry y="442" width="170" height="26" as="geometry" />
        </mxCell>
        <mxCell id="zfv1qk1JIPpRBInnybFF-29" value="+Stamina: int" style="text;align=left;verticalAlign=top;spacingLeft=4;spacingRight=4;overflow=hidden;rotatable=0;points=[[0,0.5],[1,0.5]];portConstraint=eastwest;rounded=0;shadow=0;html=0;" parent="Vv7to5zXJxRcXvwJAXze-0" vertex="1">
          <mxGeometry y="468" width="170" height="26" as="geometry" />
        </mxCell>
        <mxCell id="zfv1qk1JIPpRBInnybFF-28" value="+CriticalChance: double" style="text;align=left;verticalAlign=top;spacingLeft=4;spacingRight=4;overflow=hidden;rotatable=0;points=[[0,0.5],[1,0.5]];portConstraint=eastwest;rounded=0;shadow=0;html=0;" parent="Vv7to5zXJxRcXvwJAXze-0" vertex="1">
          <mxGeometry y="494" width="170" height="26" as="geometry" />
        </mxCell>
        <mxCell id="zfv1qk1JIPpRBInnybFF-27" value="+DodgeChance: double" style="text;align=left;verticalAlign=top;spacingLeft=4;spacingRight=4;overflow=hidden;rotatable=0;points=[[0,0.5],[1,0.5]];portConstraint=eastwest;rounded=0;shadow=0;html=0;" parent="Vv7to5zXJxRcXvwJAXze-0" vertex="1">
          <mxGeometry y="520" width="170" height="26" as="geometry" />
        </mxCell>
        <mxCell id="zfv1qk1JIPpRBInnybFF-26" value="+Abilities: List" style="text;align=left;verticalAlign=top;spacingLeft=4;spacingRight=4;overflow=hidden;rotatable=0;points=[[0,0.5],[1,0.5]];portConstraint=eastwest;rounded=0;shadow=0;html=0;" parent="Vv7to5zXJxRcXvwJAXze-0" vertex="1">
          <mxGeometry y="546" width="170" height="26" as="geometry" />
        </mxCell>
        <mxCell id="zfv1qk1JIPpRBInnybFF-25" value="+PassiveSkills: List" style="text;align=left;verticalAlign=top;spacingLeft=4;spacingRight=4;overflow=hidden;rotatable=0;points=[[0,0.5],[1,0.5]];portConstraint=eastwest;rounded=0;shadow=0;html=0;" parent="Vv7to5zXJxRcXvwJAXze-0" vertex="1">
          <mxGeometry y="572" width="170" height="26" as="geometry" />
        </mxCell>
        <mxCell id="zfv1qk1JIPpRBInnybFF-24" value="+Inventory: List" style="text;align=left;verticalAlign=top;spacingLeft=4;spacingRight=4;overflow=hidden;rotatable=0;points=[[0,0.5],[1,0.5]];portConstraint=eastwest;rounded=0;shadow=0;html=0;" parent="Vv7to5zXJxRcXvwJAXze-0" vertex="1">
          <mxGeometry y="598" width="170" height="26" as="geometry" />
        </mxCell>
        <mxCell id="zfv1qk1JIPpRBInnybFF-31" value="+Deeds: List" style="text;align=left;verticalAlign=top;spacingLeft=4;spacingRight=4;overflow=hidden;rotatable=0;points=[[0,0.5],[1,0.5]];portConstraint=eastwest;rounded=0;shadow=0;html=0;" parent="Vv7to5zXJxRcXvwJAXze-0" vertex="1">
          <mxGeometry y="624" width="170" height="26" as="geometry" />
        </mxCell>
        <mxCell id="zfv1qk1JIPpRBInnybFF-32" value="+Stats: Dictionary" style="text;align=left;verticalAlign=top;spacingLeft=4;spacingRight=4;overflow=hidden;rotatable=0;points=[[0,0.5],[1,0.5]];portConstraint=eastwest;rounded=0;shadow=0;html=0;" parent="Vv7to5zXJxRcXvwJAXze-0" vertex="1">
          <mxGeometry y="650" width="170" height="26" as="geometry" />
        </mxCell>
        <mxCell id="Vv7to5zXJxRcXvwJAXze-6" value="" style="line;html=1;strokeWidth=1;align=left;verticalAlign=middle;spacingTop=-1;spacingLeft=3;spacingRight=3;rotatable=0;labelPosition=right;points=[];portConstraint=eastwest;" parent="Vv7to5zXJxRcXvwJAXze-0" vertex="1">
          <mxGeometry y="676" width="170" height="8" as="geometry" />
        </mxCell>
        <mxCell id="Vv7to5zXJxRcXvwJAXze-7" value="+ToString() : string" style="text;align=left;verticalAlign=top;spacingLeft=4;spacingRight=4;overflow=hidden;rotatable=0;points=[[0,0.5],[1,0.5]];portConstraint=eastwest;" parent="Vv7to5zXJxRcXvwJAXze-0" vertex="1">
          <mxGeometry y="684" width="170" height="26" as="geometry" />
        </mxCell>
        <mxCell id="Vv7to5zXJxRcXvwJAXze-8" value="+LevelUp() : void" style="text;align=left;verticalAlign=top;spacingLeft=4;spacingRight=4;overflow=hidden;rotatable=0;points=[[0,0.5],[1,0.5]];portConstraint=eastwest;" parent="Vv7to5zXJxRcXvwJAXze-0" vertex="1">
          <mxGeometry y="710" width="170" height="26" as="geometry" />
        </mxCell>
        <mxCell id="Vv7to5zXJxRcXvwJAXze-10" value="&quot;abstract&quot;&#xa;AbstractBuilder" style="swimlane;fontStyle=0;align=center;verticalAlign=top;childLayout=stackLayout;horizontal=1;startSize=40;horizontalStack=0;resizeParent=1;resizeLast=0;collapsible=1;marginBottom=0;rounded=0;shadow=0;strokeWidth=1;" parent="WIyWlLk6GJQsqaUBKTNV-1" vertex="1">
          <mxGeometry x="10" y="430" width="290" height="492" as="geometry">
            <mxRectangle x="550" y="140" width="160" height="26" as="alternateBounds" />
          </mxGeometry>
        </mxCell>
        <mxCell id="Vv7to5zXJxRcXvwJAXze-12" value="#character: Character" style="text;align=left;verticalAlign=top;spacingLeft=4;spacingRight=4;overflow=hidden;rotatable=0;points=[[0,0.5],[1,0.5]];portConstraint=eastwest;rounded=0;shadow=0;html=0;" parent="Vv7to5zXJxRcXvwJAXze-10" vertex="1">
          <mxGeometry y="40" width="290" height="26" as="geometry" />
        </mxCell>
        <mxCell id="Vv7to5zXJxRcXvwJAXze-16" value="" style="line;html=1;strokeWidth=1;align=left;verticalAlign=middle;spacingTop=-1;spacingLeft=3;spacingRight=3;rotatable=0;labelPosition=right;points=[];portConstraint=eastwest;" parent="Vv7to5zXJxRcXvwJAXze-10" vertex="1">
          <mxGeometry y="66" width="290" height="8" as="geometry" />
        </mxCell>
        <mxCell id="Vv7to5zXJxRcXvwJAXze-15" value="+SetHeight(height: int) : ICharacterBuilder" style="text;align=left;verticalAlign=top;spacingLeft=4;spacingRight=4;overflow=hidden;rotatable=0;points=[[0,0.5],[1,0.5]];portConstraint=eastwest;rounded=0;shadow=0;html=0;" parent="Vv7to5zXJxRcXvwJAXze-10" vertex="1">
          <mxGeometry y="74" width="290" height="26" as="geometry" />
        </mxCell>
        <mxCell id="Vv7to5zXJxRcXvwJAXze-13" value="+SetPhysique(physique: string) : ICharacterBuilder" style="text;align=left;verticalAlign=top;spacingLeft=4;spacingRight=4;overflow=hidden;rotatable=0;points=[[0,0.5],[1,0.5]];portConstraint=eastwest;rounded=0;shadow=0;html=0;" parent="Vv7to5zXJxRcXvwJAXze-10" vertex="1">
          <mxGeometry y="100" width="290" height="26" as="geometry" />
        </mxCell>
        <mxCell id="Vv7to5zXJxRcXvwJAXze-11" value="+SetHairColor(hairColor: string) : ICharacterBuilder" style="text;align=left;verticalAlign=top;spacingLeft=4;spacingRight=4;overflow=hidden;rotatable=0;points=[[0,0.5],[1,0.5]];portConstraint=eastwest;" parent="Vv7to5zXJxRcXvwJAXze-10" vertex="1">
          <mxGeometry y="126" width="290" height="26" as="geometry" />
        </mxCell>
        <mxCell id="Vv7to5zXJxRcXvwJAXze-14" value="+SetEyeColor(eyeColor: string) : ICharacterBuilder" style="text;align=left;verticalAlign=top;spacingLeft=4;spacingRight=4;overflow=hidden;rotatable=0;points=[[0,0.5],[1,0.5]];portConstraint=eastwest;rounded=0;shadow=0;html=0;" parent="Vv7to5zXJxRcXvwJAXze-10" vertex="1">
          <mxGeometry y="152" width="290" height="26" as="geometry" />
        </mxCell>
        <mxCell id="Vv7to5zXJxRcXvwJAXze-17" value="+SetClothing(clothing: string) : ICharacterBuilder" style="text;align=left;verticalAlign=top;spacingLeft=4;spacingRight=4;overflow=hidden;rotatable=0;points=[[0,0.5],[1,0.5]];portConstraint=eastwest;" parent="Vv7to5zXJxRcXvwJAXze-10" vertex="1">
          <mxGeometry y="178" width="290" height="26" as="geometry" />
        </mxCell>
        <mxCell id="Vv7to5zXJxRcXvwJAXze-18" value="+AddInventoryItem(item: string) : ICharacterBuilder" style="text;align=left;verticalAlign=top;spacingLeft=4;spacingRight=4;overflow=hidden;rotatable=0;points=[[0,0.5],[1,0.5]];portConstraint=eastwest;" parent="Vv7to5zXJxRcXvwJAXze-10" vertex="1">
          <mxGeometry y="204" width="290" height="26" as="geometry" />
        </mxCell>
        <mxCell id="Vv7to5zXJxRcXvwJAXze-19" value="+AddDeed(deed: string) : ICharacterBuilder" style="text;align=left;verticalAlign=top;spacingLeft=4;spacingRight=4;overflow=hidden;rotatable=0;points=[[0,0.5],[1,0.5]];portConstraint=eastwest;" parent="Vv7to5zXJxRcXvwJAXze-10" vertex="1">
          <mxGeometry y="230" width="290" height="26" as="geometry" />
        </mxCell>
        <mxCell id="Vv7to5zXJxRcXvwJAXze-20" value="+SetBaseStats(strength: int, agility: int, &#xa;intelligence: int, stamina: int) : ICharacterBuilder" style="text;align=left;verticalAlign=top;spacingLeft=4;spacingRight=4;overflow=hidden;rotatable=0;points=[[0,0.5],[1,0.5]];portConstraint=eastwest;" parent="Vv7to5zXJxRcXvwJAXze-10" vertex="1">
          <mxGeometry y="256" width="290" height="44" as="geometry" />
        </mxCell>
        <mxCell id="Vv7to5zXJxRcXvwJAXze-21" value="+SetLevel(level: int) : ICharacterBuilder" style="text;align=left;verticalAlign=top;spacingLeft=4;spacingRight=4;overflow=hidden;rotatable=0;points=[[0,0.5],[1,0.5]];portConstraint=eastwest;" parent="Vv7to5zXJxRcXvwJAXze-10" vertex="1">
          <mxGeometry y="300" width="290" height="24" as="geometry" />
        </mxCell>
        <mxCell id="Vv7to5zXJxRcXvwJAXze-22" value="+AddAbility(ability: string) : ICharacterBuilder" style="text;align=left;verticalAlign=top;spacingLeft=4;spacingRight=4;overflow=hidden;rotatable=0;points=[[0,0.5],[1,0.5]];portConstraint=eastwest;" parent="Vv7to5zXJxRcXvwJAXze-10" vertex="1">
          <mxGeometry y="324" width="290" height="24" as="geometry" />
        </mxCell>
        <mxCell id="Vv7to5zXJxRcXvwJAXze-23" value="+AddPassiveSkill(skill: string) : ICharacterBuilder" style="text;align=left;verticalAlign=top;spacingLeft=4;spacingRight=4;overflow=hidden;rotatable=0;points=[[0,0.5],[1,0.5]];portConstraint=eastwest;" parent="Vv7to5zXJxRcXvwJAXze-10" vertex="1">
          <mxGeometry y="348" width="290" height="24" as="geometry" />
        </mxCell>
        <mxCell id="Vv7to5zXJxRcXvwJAXze-24" value="#Build() : Character" style="text;align=left;verticalAlign=top;spacingLeft=4;spacingRight=4;overflow=hidden;rotatable=0;points=[[0,0.5],[1,0.5]];portConstraint=eastwest;" parent="Vv7to5zXJxRcXvwJAXze-10" vertex="1">
          <mxGeometry y="372" width="290" height="24" as="geometry" />
        </mxCell>
        <mxCell id="Vv7to5zXJxRcXvwJAXze-25" value="#CalculateAttack() : int" style="text;align=left;verticalAlign=top;spacingLeft=4;spacingRight=4;overflow=hidden;rotatable=0;points=[[0,0.5],[1,0.5]];portConstraint=eastwest;" parent="Vv7to5zXJxRcXvwJAXze-10" vertex="1">
          <mxGeometry y="396" width="290" height="24" as="geometry" />
        </mxCell>
        <mxCell id="Vv7to5zXJxRcXvwJAXze-26" value="#CalculateDefense() : int" style="text;align=left;verticalAlign=top;spacingLeft=4;spacingRight=4;overflow=hidden;rotatable=0;points=[[0,0.5],[1,0.5]];portConstraint=eastwest;" parent="Vv7to5zXJxRcXvwJAXze-10" vertex="1">
          <mxGeometry y="420" width="290" height="24" as="geometry" />
        </mxCell>
        <mxCell id="Vv7to5zXJxRcXvwJAXze-27" value="#CalculateCriticalChance() : double" style="text;align=left;verticalAlign=top;spacingLeft=4;spacingRight=4;overflow=hidden;rotatable=0;points=[[0,0.5],[1,0.5]];portConstraint=eastwest;" parent="Vv7to5zXJxRcXvwJAXze-10" vertex="1">
          <mxGeometry y="444" width="290" height="24" as="geometry" />
        </mxCell>
        <mxCell id="Vv7to5zXJxRcXvwJAXze-28" value="#CalculateDodgeChance() : double" style="text;align=left;verticalAlign=top;spacingLeft=4;spacingRight=4;overflow=hidden;rotatable=0;points=[[0,0.5],[1,0.5]];portConstraint=eastwest;" parent="Vv7to5zXJxRcXvwJAXze-10" vertex="1">
          <mxGeometry y="468" width="290" height="24" as="geometry" />
        </mxCell>
        <mxCell id="Vv7to5zXJxRcXvwJAXze-36" style="edgeStyle=orthogonalEdgeStyle;rounded=0;orthogonalLoop=1;jettySize=auto;html=1;entryX=0.277;entryY=1.035;entryDx=0;entryDy=0;entryPerimeter=0;" parent="WIyWlLk6GJQsqaUBKTNV-1" source="zkfFHV4jXpPFQw0GAbJ--6" target="Vv7to5zXJxRcXvwJAXze-28" edge="1">
          <mxGeometry relative="1" as="geometry" />
        </mxCell>
        <mxCell id="-L3bcG7KPsZaxDMUh6fV-16" style="edgeStyle=orthogonalEdgeStyle;rounded=0;orthogonalLoop=1;jettySize=auto;html=1;entryX=1;entryY=0.5;entryDx=0;entryDy=0;" edge="1" parent="WIyWlLk6GJQsqaUBKTNV-1" source="Vv7to5zXJxRcXvwJAXze-37" target="Vv7to5zXJxRcXvwJAXze-28">
          <mxGeometry relative="1" as="geometry">
            <Array as="points">
              <mxPoint x="330" y="910" />
            </Array>
          </mxGeometry>
        </mxCell>
        <mxCell id="Vv7to5zXJxRcXvwJAXze-37" value="EnemyBuilder" style="swimlane;fontStyle=0;align=center;verticalAlign=top;childLayout=stackLayout;horizontal=1;startSize=26;horizontalStack=0;resizeParent=1;resizeLast=0;collapsible=1;marginBottom=0;rounded=0;shadow=0;strokeWidth=1;" parent="WIyWlLk6GJQsqaUBKTNV-1" vertex="1">
          <mxGeometry x="280" y="1040" width="250" height="112" as="geometry">
            <mxRectangle x="130" y="380" width="160" height="26" as="alternateBounds" />
          </mxGeometry>
        </mxCell>
        <mxCell id="Vv7to5zXJxRcXvwJAXze-38" value="" style="line;html=1;strokeWidth=1;align=left;verticalAlign=middle;spacingTop=-1;spacingLeft=3;spacingRight=3;rotatable=0;labelPosition=right;points=[];portConstraint=eastwest;" parent="Vv7to5zXJxRcXvwJAXze-37" vertex="1">
          <mxGeometry y="26" width="250" height="8" as="geometry" />
        </mxCell>
        <mxCell id="Vv7to5zXJxRcXvwJAXze-39" value="+EnemyBuilder()" style="text;align=left;verticalAlign=top;spacingLeft=4;spacingRight=4;overflow=hidden;rotatable=0;points=[[0,0.5],[1,0.5]];portConstraint=eastwest;" parent="Vv7to5zXJxRcXvwJAXze-37" vertex="1">
          <mxGeometry y="34" width="250" height="26" as="geometry" />
        </mxCell>
        <mxCell id="Vv7to5zXJxRcXvwJAXze-40" value="+AddDeed(deed: string) : ICharacterBuilder" style="text;align=left;verticalAlign=top;spacingLeft=4;spacingRight=4;overflow=hidden;rotatable=0;points=[[0,0.5],[1,0.5]];portConstraint=eastwest;rounded=0;shadow=0;html=0;" parent="Vv7to5zXJxRcXvwJAXze-37" vertex="1">
          <mxGeometry y="60" width="250" height="26" as="geometry" />
        </mxCell>
        <mxCell id="Vv7to5zXJxRcXvwJAXze-41" value="#CalculateDefense() : int" style="text;align=left;verticalAlign=top;spacingLeft=4;spacingRight=4;overflow=hidden;rotatable=0;points=[[0,0.5],[1,0.5]];portConstraint=eastwest;" parent="Vv7to5zXJxRcXvwJAXze-37" vertex="1">
          <mxGeometry y="86" width="250" height="26" as="geometry" />
        </mxCell>
        <mxCell id="zfv1qk1JIPpRBInnybFF-23" style="edgeStyle=orthogonalEdgeStyle;rounded=0;orthogonalLoop=1;jettySize=auto;html=1;entryX=0.5;entryY=1.038;entryDx=0;entryDy=0;entryPerimeter=0;" parent="WIyWlLk6GJQsqaUBKTNV-1" source="Vv7to5zXJxRcXvwJAXze-10" target="Vv7to5zXJxRcXvwJAXze-33" edge="1">
          <mxGeometry relative="1" as="geometry" />
        </mxCell>
        <mxCell id="zfv1qk1JIPpRBInnybFF-33" style="edgeStyle=orthogonalEdgeStyle;rounded=0;orthogonalLoop=1;jettySize=auto;html=1;entryX=-0.009;entryY=0.005;entryDx=0;entryDy=0;entryPerimeter=0;" parent="WIyWlLk6GJQsqaUBKTNV-1" source="Vv7to5zXJxRcXvwJAXze-19" target="zfv1qk1JIPpRBInnybFF-19" edge="1">
          <mxGeometry relative="1" as="geometry">
            <mxPoint x="620" y="360" as="targetPoint" />
            <Array as="points">
              <mxPoint x="330" y="673" />
              <mxPoint x="330" y="360" />
              <mxPoint x="620" y="360" />
              <mxPoint x="620" y="358" />
            </Array>
          </mxGeometry>
        </mxCell>
        <mxCell id="-L3bcG7KPsZaxDMUh6fV-17" style="edgeStyle=orthogonalEdgeStyle;rounded=0;orthogonalLoop=1;jettySize=auto;html=1;entryX=1;entryY=0.5;entryDx=0;entryDy=0;" edge="1" parent="WIyWlLk6GJQsqaUBKTNV-1" source="-L3bcG7KPsZaxDMUh6fV-0" target="Vv7to5zXJxRcXvwJAXze-32">
          <mxGeometry relative="1" as="geometry">
            <Array as="points">
              <mxPoint x="390" y="345" />
            </Array>
          </mxGeometry>
        </mxCell>
        <mxCell id="-L3bcG7KPsZaxDMUh6fV-0" value="CharacterDirector" style="swimlane;fontStyle=0;align=center;verticalAlign=top;childLayout=stackLayout;horizontal=1;startSize=30;horizontalStack=0;resizeParent=1;resizeLast=0;collapsible=1;marginBottom=0;rounded=0;shadow=0;strokeWidth=1;" vertex="1" parent="WIyWlLk6GJQsqaUBKTNV-1">
          <mxGeometry x="320" y="10" width="300" height="310" as="geometry">
            <mxRectangle x="550" y="140" width="160" height="26" as="alternateBounds" />
          </mxGeometry>
        </mxCell>
        <mxCell id="-L3bcG7KPsZaxDMUh6fV-2" value="- builder: ICharacterBuilder" style="text;align=left;verticalAlign=top;spacingLeft=4;spacingRight=4;overflow=hidden;rotatable=0;points=[[0,0.5],[1,0.5]];portConstraint=eastwest;" vertex="1" parent="-L3bcG7KPsZaxDMUh6fV-0">
          <mxGeometry y="30" width="300" height="26" as="geometry" />
        </mxCell>
        <mxCell id="-L3bcG7KPsZaxDMUh6fV-1" value="" style="line;html=1;strokeWidth=1;align=left;verticalAlign=middle;spacingTop=-1;spacingLeft=3;spacingRight=3;rotatable=0;labelPosition=right;points=[];portConstraint=eastwest;" vertex="1" parent="-L3bcG7KPsZaxDMUh6fV-0">
          <mxGeometry y="56" width="300" height="8" as="geometry" />
        </mxCell>
        <mxCell id="-L3bcG7KPsZaxDMUh6fV-3" value="+ CharacterDirector (builder ICharacterBuilder)" style="text;align=left;verticalAlign=top;spacingLeft=4;spacingRight=4;overflow=hidden;rotatable=0;points=[[0,0.5],[1,0.5]];portConstraint=eastwest;rounded=0;shadow=0;html=0;" vertex="1" parent="-L3bcG7KPsZaxDMUh6fV-0">
          <mxGeometry y="64" width="300" height="26" as="geometry" />
        </mxCell>
        <mxCell id="-L3bcG7KPsZaxDMUh6fV-4" value="+ ChangeBuilder(builder ICharacterBuilder) : void" style="text;align=left;verticalAlign=top;spacingLeft=4;spacingRight=4;overflow=hidden;rotatable=0;points=[[0,0.5],[1,0.5]];portConstraint=eastwest;rounded=0;shadow=0;html=0;" vertex="1" parent="-L3bcG7KPsZaxDMUh6fV-0">
          <mxGeometry y="90" width="300" height="26" as="geometry" />
        </mxCell>
        <mxCell id="-L3bcG7KPsZaxDMUh6fV-5" value="+ ConstructWarrior(name string) : void" style="text;align=left;verticalAlign=top;spacingLeft=4;spacingRight=4;overflow=hidden;rotatable=0;points=[[0,0.5],[1,0.5]];portConstraint=eastwest;rounded=0;shadow=0;html=0;" vertex="1" parent="-L3bcG7KPsZaxDMUh6fV-0">
          <mxGeometry y="116" width="300" height="26" as="geometry" />
        </mxCell>
        <mxCell id="-L3bcG7KPsZaxDMUh6fV-6" value="+ ConstructMage(name string) : void" style="text;align=left;verticalAlign=top;spacingLeft=4;spacingRight=4;overflow=hidden;rotatable=0;points=[[0,0.5],[1,0.5]];portConstraint=eastwest;rounded=0;shadow=0;html=0;" vertex="1" parent="-L3bcG7KPsZaxDMUh6fV-0">
          <mxGeometry y="142" width="300" height="26" as="geometry" />
        </mxCell>
        <mxCell id="-L3bcG7KPsZaxDMUh6fV-7" value="+ ConstructRogue(name string) : void" style="text;align=left;verticalAlign=top;spacingLeft=4;spacingRight=4;overflow=hidden;rotatable=0;points=[[0,0.5],[1,0.5]];portConstraint=eastwest;" vertex="1" parent="-L3bcG7KPsZaxDMUh6fV-0">
          <mxGeometry y="168" width="300" height="26" as="geometry" />
        </mxCell>
        <mxCell id="-L3bcG7KPsZaxDMUh6fV-8" value="+ ConstructEliteCharacter(characterClass string) : void" style="text;align=left;verticalAlign=top;spacingLeft=4;spacingRight=4;overflow=hidden;rotatable=0;points=[[0,0.5],[1,0.5]];portConstraint=eastwest;" vertex="1" parent="-L3bcG7KPsZaxDMUh6fV-0">
          <mxGeometry y="194" width="300" height="26" as="geometry" />
        </mxCell>
        <mxCell id="-L3bcG7KPsZaxDMUh6fV-9" value="- ConstructEliteWarrior() : void" style="text;align=left;verticalAlign=top;spacingLeft=4;spacingRight=4;overflow=hidden;rotatable=0;points=[[0,0.5],[1,0.5]];portConstraint=eastwest;" vertex="1" parent="-L3bcG7KPsZaxDMUh6fV-0">
          <mxGeometry y="220" width="300" height="30" as="geometry" />
        </mxCell>
        <mxCell id="-L3bcG7KPsZaxDMUh6fV-10" value="- ConstructEliteMage() : void" style="text;align=left;verticalAlign=top;spacingLeft=4;spacingRight=4;overflow=hidden;rotatable=0;points=[[0,0.5],[1,0.5]];portConstraint=eastwest;" vertex="1" parent="-L3bcG7KPsZaxDMUh6fV-0">
          <mxGeometry y="250" width="300" height="26" as="geometry" />
        </mxCell>
        <mxCell id="-L3bcG7KPsZaxDMUh6fV-11" value="- ConstructEliteRogue() : void" style="text;align=left;verticalAlign=top;spacingLeft=4;spacingRight=4;overflow=hidden;rotatable=0;points=[[0,0.5],[1,0.5]];portConstraint=eastwest;" vertex="1" parent="-L3bcG7KPsZaxDMUh6fV-0">
          <mxGeometry y="276" width="300" height="26" as="geometry" />
        </mxCell>
      </root>
    </mxGraphModel>
  </diagram>
</mxfile>
